<svg width="192" height="192" viewBox="0 0 192 192" fill="none" xmlns="http://www.w3.org/2000/svg">
<g clip-path="url(#clip0_2911_6684)">
<g clip-path="url(#clip1_2911_6684)">
<g clip-path="url(#clip2_2911_6684)">
<path d="M191.887 -0.00683594H-0.113281V191.993H191.887V-0.00683594Z" fill="#0F172A"/>
<path d="M73.0193 100.952H34.7279C33.5665 100.952 32.625 100.002 32.625 98.8307V91.0199C32.625 89.8485 33.5665 88.8989 34.7279 88.8989H67.0568V87.751C67.0568 81.4855 65.9447 77.2527 63.7206 75.0526C61.5438 72.8047 57.3558 71.6807 51.1567 71.6807H39.5155C37.9394 71.6562 36.4921 71.7086 35.1738 71.8379C33.849 71.9679 32.625 70.9592 32.625 69.6166V61.883C32.625 60.8231 33.4004 59.9206 34.4468 59.8237C36.0506 59.6752 37.7402 59.6099 39.5155 59.6279H51.1567C60.621 59.6279 67.6246 61.9237 72.1675 66.5152C73.4456 67.7935 74.0913 68.476 75.4405 70.2136C75.5471 70.3509 75.7266 70.4094 75.8928 70.3615C79.3357 69.3707 82.0562 69.1695 85.9084 69.1695H87.757C93.6346 69.1695 98.2562 70.0065 101.622 71.6805C104.987 73.3068 107.547 75.9614 109.301 79.6443C111.813 75.8657 114.467 73.1872 117.264 71.6088C120.108 69.9826 123.687 69.1695 128 69.1695H133.83C142.789 69.1695 149.212 71.2979 153.099 75.5548C157.033 79.8117 159 86.8667 159 96.7198V130.254C159 131.425 158.059 132.375 156.897 132.375H149.158C147.997 132.375 147.055 131.425 147.055 130.254V96.7198C147.055 91.2671 146.012 87.3211 143.927 84.8817C141.888 82.4424 138.523 81.2227 133.83 81.2227H128C122.596 81.2227 118.733 82.4424 116.411 84.8817C114.088 87.3211 112.927 91.2671 112.927 96.7198V130.254C112.927 131.425 111.985 132.375 110.824 132.375H103.085C101.923 132.375 100.982 131.425 100.982 130.254V96.7198C100.982 91.2671 99.9389 87.3211 97.8533 84.8817C95.8151 82.4424 92.4496 81.2227 87.757 81.2227H81.9267C80.9066 81.2227 79.9413 81.2662 79.031 81.3531C78.7972 81.3754 78.6306 81.5897 78.658 81.825C78.8739 83.6799 78.9819 85.6552 78.9819 87.751V94.9253C78.9819 98.9429 76.9943 100.952 73.0193 100.952Z" fill="white"/>
<path d="M51.1567 132.375C59.2014 132.375 65.4952 130.916 70.0381 127.999C74.5809 125.081 77.3729 120.657 78.414 114.726C78.7926 112.718 78.4613 111.187 77.4202 110.135C76.3792 109.083 74.8649 108.556 72.8774 108.556C70.9845 108.556 69.5648 109.035 68.6184 109.991C67.7193 110.948 67.0095 112.335 66.4889 114.152C65.7318 116.448 64.1938 118.05 61.875 118.959C59.5563 119.868 55.9835 120.322 51.1567 120.322H39.5155C37.9454 120.322 36.5032 120.251 35.189 120.107C33.8595 119.962 32.625 120.973 32.625 122.321V130.07C32.625 131.123 33.3907 132.022 34.4294 132.128C36.0384 132.293 37.7338 132.375 39.5155 132.375H51.1567Z" fill="white"/>
</g>
</g>
</g>
<defs>
<clipPath id="clip0_2911_6684">
<rect width="192" height="192" fill="white"/>
</clipPath>
<clipPath id="clip1_2911_6684">
<rect width="192" height="192" fill="white"/>
</clipPath>
<clipPath id="clip2_2911_6684">
<rect width="192.375" height="192.375" fill="white" transform="translate(-0.1875 -0.1875)"/>
</clipPath>
</defs>
</svg>
