<svg width="512" height="512" viewBox="0 0 512 512" fill="none" xmlns="http://www.w3.org/2000/svg">
<g clip-path="url(#clip0_2911_6682)">
<g clip-path="url(#clip1_2911_6682)">
<g clip-path="url(#clip2_2911_6682)">
<path d="M511.695 -0.0175781H-0.304688V511.982H511.695V-0.0175781Z" fill="#0F172A"/>
<path d="M194.718 269.205H92.6076C89.5106 269.205 87 266.672 87 263.549V242.72C87 239.596 89.5106 237.064 92.6076 237.064H178.818V234.003C178.818 217.295 175.853 206.007 169.922 200.14C164.117 194.146 152.949 191.149 136.418 191.149H105.375C101.172 191.083 97.3124 191.223 93.7968 191.568C90.2639 191.914 87 189.224 87 185.644V165.021C87 162.195 89.0677 159.788 91.8581 159.53C96.1349 159.134 100.64 158.96 105.375 159.008H136.418C161.656 159.008 180.332 165.13 192.447 177.374C195.855 180.783 197.577 182.603 201.175 187.236C201.459 187.602 201.938 187.758 202.381 187.631C211.562 184.989 218.817 184.452 229.089 184.452H234.019C249.692 184.452 262.016 186.684 270.991 191.148C279.966 195.485 286.791 202.564 291.468 212.385C298.167 202.309 305.246 195.166 312.704 190.957C320.288 186.62 329.831 184.452 341.333 184.452H356.881C380.771 184.452 397.898 190.128 408.263 201.48C418.754 212.831 424 231.645 424 257.919V347.344C424 350.468 421.489 353 418.392 353H397.754C394.657 353 392.147 350.468 392.147 347.344V257.919C392.147 243.379 389.366 232.856 383.804 226.351C378.369 219.846 369.395 216.594 356.881 216.594H341.333C326.924 216.594 316.622 219.846 310.428 226.351C304.235 232.856 301.138 243.379 301.138 257.919V347.344C301.138 350.468 298.627 353 295.53 353H274.892C271.795 353 269.285 350.468 269.285 347.344V257.919C269.285 243.379 266.504 232.856 260.942 226.351C255.507 219.846 246.532 216.594 234.019 216.594H218.471C215.751 216.594 213.177 216.71 210.749 216.942C210.126 217.001 209.682 217.573 209.755 218.2C210.33 223.146 210.618 228.414 210.618 234.003V253.134C210.618 263.848 205.318 269.205 194.718 269.205Z" fill="white"/>
<path d="M136.418 353C157.87 353 174.654 349.11 186.768 341.33C198.882 333.55 206.328 321.752 209.104 305.937C210.114 300.58 209.23 296.499 206.454 293.693C203.678 290.887 199.64 289.484 194.34 289.484C189.292 289.484 185.506 290.759 182.982 293.31C180.585 295.861 178.692 299.56 177.304 304.406C175.285 310.528 171.183 314.801 165 317.224C158.817 319.648 149.289 320.859 136.418 320.859H105.375C101.188 320.859 97.342 320.668 93.8373 320.286C90.292 319.899 87 322.594 87 326.19V346.854C87 349.663 89.0418 352.059 91.8119 352.342C96.1024 352.781 100.623 353 105.375 353H136.418Z" fill="white"/>
</g>
</g>
</g>
<defs>
<clipPath id="clip0_2911_6682">
<rect width="512" height="512" fill="white"/>
</clipPath>
<clipPath id="clip1_2911_6682">
<rect width="512" height="512" fill="white"/>
</clipPath>
<clipPath id="clip2_2911_6682">
<rect width="513" height="513" fill="white" transform="translate(-0.5 -0.5)"/>
</clipPath>
</defs>
</svg>
