<svg width="180" height="180" viewBox="0 0 180 180" fill="none" xmlns="http://www.w3.org/2000/svg">
<g clip-path="url(#clip0_2911_6696)">
<g clip-path="url(#clip1_2911_6696)">
<g clip-path="url(#clip2_2911_6696)">
<path d="M179.893 -0.00585938H-0.107422V179.994H179.893V-0.00585938Z" fill="#0F172A"/>
<path d="M68.4556 94.6422H32.5574C31.4686 94.6422 30.5859 93.752 30.5859 92.6538V85.3312C30.5859 84.233 31.4686 83.3428 32.5574 83.3428H62.8657V82.2666C62.8657 76.3927 61.8232 72.4244 59.7381 70.3618C57.6973 68.2544 53.7711 67.2006 47.9594 67.2006H37.0458C35.5682 67.1777 34.2114 67.2268 32.9754 67.3481C31.7334 67.4699 30.5859 66.5242 30.5859 65.2656V58.0153C30.5859 57.0217 31.3129 56.1756 32.2939 56.0847C33.7974 55.9455 35.3814 55.8843 37.0458 55.9012H47.9594C56.8322 55.9012 63.3981 58.0535 67.6571 62.358C68.8552 63.5564 69.4606 64.1962 70.7255 65.8253C70.8254 65.9539 70.9937 66.0088 71.1495 65.9639C74.3772 65.0351 76.9277 64.8464 80.5391 64.8464H82.2722C87.7825 64.8464 92.1152 65.6311 95.2703 67.2005C98.4254 68.7251 100.825 71.2138 102.469 74.6665C104.824 71.1241 107.313 68.613 109.935 67.1333C112.601 65.6087 115.956 64.8464 120 64.8464H125.466C133.865 64.8464 139.886 66.8418 143.53 70.8326C147.218 74.8235 149.063 81.4375 149.063 90.6748V122.113C149.063 123.211 148.18 124.102 147.091 124.102H139.836C138.747 124.102 137.864 123.211 137.864 122.113V90.6748C137.864 85.5629 136.886 81.8635 134.931 79.5766C133.02 77.2897 129.865 76.1463 125.466 76.1463H120C114.934 76.1463 111.312 77.2897 109.135 79.5766C106.957 81.8635 105.869 85.5629 105.869 90.6748V122.113C105.869 123.211 104.986 124.102 103.897 124.102H96.6418C95.553 124.102 94.6704 123.211 94.6704 122.113V90.6748C94.6704 85.5629 93.6927 81.8635 91.7375 79.5766C89.8266 77.2897 86.6715 76.1463 82.2722 76.1463H76.8063C75.8499 76.1463 74.945 76.187 74.0916 76.2685C73.8723 76.2895 73.7162 76.4904 73.7419 76.7109C73.9443 78.4499 74.0455 80.3018 74.0455 82.2666V88.9925C74.0455 92.759 72.1822 94.6422 68.4556 94.6422Z" fill="white"/>
<path d="M47.9594 124.102C55.5013 124.102 61.4017 122.734 65.6607 119.999C69.9196 117.264 72.5371 113.116 73.5131 107.556C73.868 105.673 73.5575 104.238 72.5815 103.251C71.6055 102.265 70.1858 101.772 68.3225 101.772C66.548 101.772 65.217 102.22 64.3298 103.117C63.4868 104.014 62.8214 105.314 62.3334 107.018C61.6235 109.17 60.1817 110.672 58.0079 111.524C55.834 112.376 52.4845 112.802 47.9594 112.802H37.0458C35.5738 112.802 34.2218 112.735 32.9897 112.601C31.7433 112.465 30.5859 113.412 30.5859 114.676V121.941C30.5859 122.928 31.3037 123.771 32.2776 123.87C33.786 124.025 35.3754 124.102 37.0458 124.102H47.9594Z" fill="white"/>
</g>
</g>
</g>
<defs>
<clipPath id="clip0_2911_6696">
<rect width="180" height="180" fill="white"/>
</clipPath>
<clipPath id="clip1_2911_6696">
<rect width="180" height="180" fill="white"/>
</clipPath>
<clipPath id="clip2_2911_6696">
<rect width="180.352" height="180.352" fill="white" transform="translate(-0.175781 -0.175781)"/>
</clipPath>
</defs>
</svg>
