<svg width="96" height="96" viewBox="0 0 96 96" fill="none" xmlns="http://www.w3.org/2000/svg">
<g clip-path="url(#clip0_2911_6720)">
<g clip-path="url(#clip1_2911_6720)">
<g clip-path="url(#clip2_2911_6720)">
<path d="M95.9434 -0.00292969H-0.0566406V95.9971H95.9434V-0.00292969Z" fill="#0F172A"/>
<path d="M36.5097 50.4758H17.3639C16.7832 50.4758 16.3125 50.001 16.3125 49.4154V45.51C16.3125 44.9243 16.7832 44.4495 17.3639 44.4495H33.5284V43.8755C33.5284 40.7428 32.9724 38.6264 31.8603 37.5263C30.7719 36.4023 28.6779 35.8403 25.5783 35.8403H19.7578C18.9697 35.8281 18.2461 35.8543 17.5869 35.919C16.9245 35.984 16.3125 35.4796 16.3125 34.8083V30.9415C16.3125 30.4116 16.7002 29.9603 17.2234 29.9119C18.0253 29.8376 18.8701 29.8049 19.7578 29.814H25.5783C30.3105 29.814 33.8123 30.9618 36.0838 33.2576C36.7228 33.8968 37.0456 34.238 37.7203 35.1068C37.7735 35.1754 37.8633 35.2047 37.9464 35.1808C39.6678 34.6854 41.0281 34.5847 42.9542 34.5847H43.8785C46.8173 34.5847 49.1281 35.0032 50.8108 35.8403C52.4935 36.6534 53.7734 37.9807 54.6503 39.8222C55.9064 37.9329 57.2336 36.5936 58.6319 35.8044C60.0539 34.9913 61.8433 34.5847 64 34.5847H66.9152C71.3945 34.5847 74.6059 35.649 76.5493 37.7774C78.5164 39.9059 79.5 43.4334 79.5 48.3599V65.127C79.5 65.7127 79.0293 66.1875 78.4486 66.1875H74.579C73.9983 66.1875 73.5275 65.7127 73.5275 65.127V48.3599C73.5275 45.6336 73.0061 43.6605 71.9633 42.4409C70.9442 41.2212 69.2615 40.6114 66.9152 40.6114H64C61.2982 40.6114 59.3666 41.2212 58.2053 42.4409C57.044 43.6605 56.4633 45.6336 56.4633 48.3599V65.127C56.4633 65.7127 55.9926 66.1875 55.4119 66.1875H51.5423C50.9616 66.1875 50.4909 65.7127 50.4909 65.127V48.3599C50.4909 45.6336 49.9695 43.6605 48.9266 42.4409C47.9075 41.2212 46.2248 40.6114 43.8785 40.6114H40.9634C40.4533 40.6114 39.9707 40.6331 39.5155 40.6766C39.3986 40.6877 39.3153 40.7949 39.329 40.9125C39.4369 41.8399 39.4909 42.8276 39.4909 43.8755V47.4627C39.4909 49.4715 38.4972 50.4758 36.5097 50.4758Z" fill="white"/>
<path d="M25.5783 66.1875C29.6007 66.1875 32.7476 65.4581 35.019 63.9993C37.2905 62.5406 38.6865 60.3285 39.207 57.3631C39.3963 56.3588 39.2307 55.5935 38.7101 55.0674C38.1896 54.5413 37.4324 54.2782 36.4387 54.2782C35.4922 54.2782 34.7824 54.5174 34.3092 54.9956C33.8596 55.4739 33.5047 56.1674 33.2445 57.0762C32.8659 58.2241 32.0969 59.0252 30.9375 59.4796C29.7781 59.9339 27.9917 60.1611 25.5783 60.1611H19.7578C18.9727 60.1611 18.2516 60.1253 17.5945 60.0536C16.9298 59.9811 16.3125 60.4863 16.3125 61.1607V65.0352C16.3125 65.5617 16.6953 66.0112 17.2147 66.0642C18.0192 66.1464 18.8669 66.1875 19.7578 66.1875H25.5783Z" fill="white"/>
</g>
</g>
</g>
<defs>
<clipPath id="clip0_2911_6720">
<rect width="96" height="96" fill="white"/>
</clipPath>
<clipPath id="clip1_2911_6720">
<rect width="96" height="96" fill="white"/>
</clipPath>
<clipPath id="clip2_2911_6720">
<rect width="96.1875" height="96.1875" fill="white" transform="translate(-0.09375 -0.09375)"/>
</clipPath>
</defs>
</svg>
