<svg width="70" height="70" viewBox="0 0 70 70" fill="none" xmlns="http://www.w3.org/2000/svg">
<g clip-path="url(#clip0_2911_6694)">
<g clip-path="url(#clip1_2911_6694)">
<g clip-path="url(#clip2_2911_6694)">
<path d="M69.959 -0.00195312H-0.0410156V69.998H69.959V-0.00195312Z" fill="#0F172A"/>
<path d="M26.6216 36.8053H12.6612C12.2378 36.8053 11.8945 36.4591 11.8945 36.032V33.1843C11.8945 32.7573 12.2378 32.4111 12.6612 32.4111H24.4478V31.9926C24.4478 29.7083 24.0423 28.1651 23.2315 27.3629C22.4378 26.5434 20.911 26.1336 18.6509 26.1336H14.4067C13.8321 26.1246 13.3044 26.1438 12.8238 26.1909C12.3408 26.2383 11.8945 25.8705 11.8945 25.3811V22.5615C11.8945 22.1751 12.1772 21.8461 12.5587 21.8107C13.1435 21.7566 13.7594 21.7328 14.4067 21.7393H18.6509C22.1014 21.7393 24.6548 22.5763 26.3111 24.2503C26.777 24.7164 27.0124 24.9652 27.5044 25.5987C27.5432 25.6487 27.6087 25.6701 27.6692 25.6526C28.9245 25.2914 29.9163 25.218 31.3208 25.218H31.9947C34.1376 25.218 35.8226 25.5232 37.0496 26.1335C38.2765 26.7264 39.2097 27.6942 39.8492 29.037C40.7651 27.6594 41.7328 26.6828 42.7524 26.1074C43.7893 25.5145 45.0941 25.218 46.6667 25.218H48.7923C52.0585 25.218 54.4001 25.994 55.8172 27.546C57.2516 29.098 57.9688 31.6702 57.9688 35.2624V47.4884C57.9688 47.9155 57.6255 48.2617 57.2021 48.2617H54.3805C53.9571 48.2617 53.6138 47.9155 53.6138 47.4884V35.2624C53.6138 33.2745 53.2336 31.8358 52.4732 30.9465C51.7301 30.0571 50.5032 29.6124 48.7923 29.6124H46.6667C44.6966 29.6124 43.2882 30.0571 42.4414 30.9465C41.5946 31.8358 41.1712 33.2745 41.1712 35.2624V47.4884C41.1712 47.9155 40.8279 48.2617 40.4045 48.2617H37.5829C37.1595 48.2617 36.8163 47.9155 36.8163 47.4884V35.2624C36.8163 33.2745 36.4361 31.8358 35.6757 30.9465C34.9326 30.0571 33.7056 29.6124 31.9947 29.6124H29.8691C29.4972 29.6124 29.1453 29.6283 28.8134 29.66C28.7281 29.6681 28.6674 29.7463 28.6774 29.832C28.7561 30.5083 28.7955 31.2285 28.7955 31.9926V34.6082C28.7955 36.0729 28.0709 36.8053 26.6216 36.8053Z" fill="white"/>
<path d="M18.6509 48.2617C21.5838 48.2617 23.8784 47.7299 25.5347 46.6662C27.191 45.6025 28.2089 43.9895 28.5884 41.8273C28.7265 41.0949 28.6057 40.5369 28.2261 40.1533C27.8466 39.7697 27.2945 39.5779 26.5699 39.5779C25.8798 39.5779 25.3622 39.7522 25.0171 40.101C24.6893 40.4497 24.4305 40.9554 24.2408 41.618C23.9647 42.455 23.404 43.0392 22.5586 43.3705C21.7132 43.7018 20.4106 43.8675 18.6509 43.8675H14.4067C13.8343 43.8675 13.3085 43.8413 12.8293 43.7891C12.3446 43.7362 11.8945 44.1046 11.8945 44.5964V47.4215C11.8945 47.8054 12.1737 48.1331 12.5524 48.1718C13.139 48.2318 13.7571 48.2617 14.4067 48.2617H18.6509Z" fill="white"/>
</g>
</g>
</g>
<defs>
<clipPath id="clip0_2911_6694">
<rect width="70" height="70" fill="white"/>
</clipPath>
<clipPath id="clip1_2911_6694">
<rect width="70" height="70" fill="white"/>
</clipPath>
<clipPath id="clip2_2911_6694">
<rect width="70.1367" height="70.1367" fill="white" transform="translate(-0.0683594 -0.0683594)"/>
</clipPath>
</defs>
</svg>
