<svg width="68" height="35" viewBox="0 0 68 35" fill="none" xmlns="http://www.w3.org/2000/svg">
<path d="M56.034 26.084C55.238 26.084 54.646 25.892 54.258 25.508C53.874 25.124 53.682 24.536 53.682 23.744V22.352C53.682 21.548 53.874 20.956 54.258 20.576C54.646 20.192 55.238 20 56.034 20H57.018C57.818 20 58.41 20.192 58.794 20.576C59.178 20.96 59.37 21.552 59.37 22.352V23.732C59.37 24.528 59.178 25.12 58.794 25.508C58.41 25.892 57.818 26.084 57.018 26.084H56.034ZM54.69 23.744C54.69 24.26 54.784 24.612 54.972 24.8C55.16 24.984 55.514 25.076 56.034 25.076H57.018C57.542 25.076 57.896 24.982 58.08 24.794C58.268 24.606 58.362 24.252 58.362 23.732V22.352C58.362 21.828 58.268 21.474 58.08 21.29C57.896 21.102 57.542 21.008 57.018 21.008H56.034C55.686 21.008 55.414 21.048 55.218 21.128C55.026 21.204 54.89 21.34 54.81 21.536C54.73 21.728 54.69 22 54.69 22.352V23.744Z" fill="white"/>
<path d="M46.1192 26.12C45.8552 26.12 45.6792 25.984 45.5912 25.712L43.9232 20.696C43.8192 20.392 43.9272 20.184 44.2472 20.072C44.5632 19.964 44.7752 20.072 44.8832 20.396L46.2392 24.434H46.1612L47.4392 20.396C47.5272 20.132 47.7192 20 48.0152 20C48.2952 20 48.4752 20.14 48.5552 20.42L49.7492 24.392H49.7012L51.0872 20.384C51.2032 20.06 51.4192 19.956 51.7352 20.072C52.0512 20.184 52.1512 20.4 52.0352 20.72L50.2112 25.712C50.1112 25.984 49.9232 26.12 49.6472 26.12C49.3632 26.12 49.1792 25.98 49.0952 25.7L47.8592 21.572H47.9912L46.6472 25.712C46.6072 25.844 46.5412 25.946 46.4492 26.018C46.3572 26.086 46.2472 26.12 46.1192 26.12Z" fill="white"/>
<path d="M38.949 26.084C38.153 26.084 37.561 25.892 37.173 25.508C36.789 25.124 36.597 24.536 36.597 23.744V22.352C36.597 21.548 36.789 20.956 37.173 20.576C37.561 20.192 38.153 20 38.949 20H39.933C40.733 20 41.325 20.192 41.709 20.576C42.093 20.96 42.285 21.552 42.285 22.352V23.732C42.285 24.528 42.093 25.12 41.709 25.508C41.325 25.892 40.733 26.084 39.933 26.084H38.949ZM37.605 23.744C37.605 24.26 37.699 24.612 37.887 24.8C38.075 24.984 38.429 25.076 38.949 25.076H39.933C40.457 25.076 40.811 24.982 40.995 24.794C41.183 24.606 41.277 24.252 41.277 23.732V22.352C41.277 21.828 41.183 21.474 40.995 21.29C40.811 21.102 40.457 21.008 39.933 21.008H38.949C38.601 21.008 38.329 21.048 38.133 21.128C37.941 21.204 37.805 21.34 37.725 21.536C37.645 21.728 37.605 22 37.605 22.352V23.744Z" fill="white"/>
<path d="M29.0343 26.12C28.7703 26.12 28.5943 25.984 28.5063 25.712L26.8383 20.696C26.7343 20.392 26.8423 20.184 27.1623 20.072C27.4783 19.964 27.6903 20.072 27.7983 20.396L29.1543 24.434H29.0763L30.3543 20.396C30.4423 20.132 30.6343 20 30.9303 20C31.2103 20 31.3903 20.14 31.4703 20.42L32.6643 24.392H32.6163L34.0023 20.384C34.1183 20.06 34.3343 19.956 34.6503 20.072C34.9663 20.184 35.0663 20.4 34.9503 20.72L33.1263 25.712C33.0263 25.984 32.8383 26.12 32.5623 26.12C32.2783 26.12 32.0943 25.98 32.0103 25.7L30.7743 21.572H30.9063L29.5623 25.712C29.5223 25.844 29.4562 25.946 29.3643 26.018C29.2723 26.086 29.1623 26.12 29.0343 26.12Z" fill="white"/>
<path d="M24.696 20C25.032 20 25.2 20.168 25.2 20.504V25.58C25.2 25.916 25.032 26.084 24.696 26.084C24.36 26.084 24.192 25.916 24.192 25.58V25.382C23.768 25.85 23.144 26.084 22.32 26.084H21.984C21.188 26.084 20.596 25.892 20.208 25.508C19.824 25.12 19.632 24.528 19.632 23.732V20.504C19.632 20.168 19.8 20 20.136 20C20.472 20 20.64 20.168 20.64 20.504V23.732C20.64 24.252 20.734 24.606 20.922 24.794C21.114 24.982 21.468 25.076 21.984 25.076H22.32C22.8 25.076 23.218 25.02 23.574 24.908C23.934 24.796 24.14 24.624 24.192 24.392V20.504C24.192 20.168 24.36 20 24.696 20Z" fill="white"/>
<path d="M15.908 20C16.664 20 17.206 20.178 17.534 20.534C17.866 20.89 18.032 21.48 18.032 22.304V25.58C18.032 25.916 17.864 26.084 17.528 26.084C17.192 26.084 17.024 25.916 17.024 25.58V22.304C17.024 21.848 16.936 21.518 16.76 21.314C16.588 21.11 16.304 21.008 15.908 21.008H15.416C14.96 21.008 14.634 21.11 14.438 21.314C14.242 21.518 14.144 21.848 14.144 22.304V25.58C14.144 25.916 13.976 26.084 13.64 26.084C13.304 26.084 13.136 25.916 13.136 25.58V22.304C13.136 21.848 13.048 21.518 12.872 21.314C12.7 21.11 12.416 21.008 12.02 21.008H11.528C11.072 21.008 10.746 21.11 10.55 21.314C10.354 21.518 10.256 21.848 10.256 22.304V25.58C10.256 25.916 10.088 26.084 9.75199 26.084C9.41599 26.084 9.24799 25.916 9.24799 25.58V20.504C9.24799 20.168 9.41599 20 9.75199 20C10.088 20 10.256 20.168 10.256 20.504V20.78C10.468 20.504 10.7 20.306 10.952 20.186C11.208 20.062 11.512 20 11.864 20H12.02C12.516 20 12.906 20.07 13.19 20.21C13.474 20.346 13.69 20.568 13.838 20.876C14.05 20.56 14.274 20.336 14.51 20.204C14.75 20.068 15.052 20 15.416 20H15.908Z" fill="white"/>
<path d="M32.7606 17C31.9646 17 31.3726 16.808 30.9846 16.424C30.6006 16.036 30.4086 15.444 30.4086 14.648V13.268C30.4086 12.468 30.6006 11.876 30.9846 11.492C31.3726 11.108 31.9646 10.916 32.7606 10.916H35.0886V9.056C35.0886 8.72 35.2566 8.552 35.5926 8.552C35.9286 8.552 36.0966 8.72 36.0966 9.056V16.496C36.0966 16.832 35.9286 17 35.5926 17C35.2566 17 35.0886 16.832 35.0886 16.496V16.412C34.9006 16.604 34.6546 16.75 34.3506 16.85C34.0466 16.95 33.6686 17 33.2166 17H32.7606ZM32.7606 15.992H33.2166C33.7446 15.992 34.1886 15.924 34.5486 15.788C34.9086 15.652 35.0886 15.444 35.0886 15.164V11.924H32.7606C32.2406 11.924 31.8866 12.02 31.6986 12.212C31.5106 12.4 31.4166 12.752 31.4166 13.268V14.648C31.4166 15.168 31.5106 15.522 31.6986 15.71C31.8906 15.898 32.2446 15.992 32.7606 15.992Z" fill="white"/>
<path d="M28.3046 10.916C28.6406 10.916 28.8086 11.084 28.8086 11.42V16.496C28.8086 16.832 28.6406 17 28.3046 17C27.9686 17 27.8006 16.832 27.8006 16.496V16.298C27.3766 16.766 26.7526 17 25.9286 17H25.5926C24.7966 17 24.2046 16.808 23.8166 16.424C23.4326 16.036 23.2406 15.444 23.2406 14.648V11.42C23.2406 11.084 23.4086 10.916 23.7446 10.916C24.0806 10.916 24.2486 11.084 24.2486 11.42V14.648C24.2486 15.168 24.3426 15.522 24.5306 15.71C24.7226 15.898 25.0766 15.992 25.5926 15.992H25.9286C26.4086 15.992 26.8266 15.936 27.1826 15.824C27.5426 15.712 27.7486 15.54 27.8006 15.308V11.42C27.8006 11.084 27.9686 10.916 28.3046 10.916Z" fill="white"/>
<path d="M20.7466 9.93199C20.3666 9.93199 20.1766 9.73999 20.1766 9.35599V9.00199C20.1766 8.62599 20.3666 8.43799 20.7466 8.43799H21.0946C21.4586 8.43799 21.6406 8.62599 21.6406 9.00199V9.35599C21.6406 9.73999 21.4586 9.93199 21.0946 9.93199H20.7466ZM20.9146 17C20.5786 17 20.4106 16.832 20.4106 16.496V11.42C20.4106 11.084 20.5786 10.916 20.9146 10.916C21.2506 10.916 21.4186 11.084 21.4186 11.42V16.496C21.4186 16.832 21.2506 17 20.9146 17Z" fill="white"/>
<path d="M18.06 17C17.448 17 16.992 16.85 16.692 16.55C16.396 16.246 16.248 15.788 16.248 15.176V9.056C16.248 8.72 16.416 8.552 16.752 8.552C17.088 8.552 17.256 8.72 17.256 9.056V15.176C17.256 15.5 17.308 15.718 17.412 15.83C17.52 15.938 17.736 15.992 18.06 15.992C18.404 15.992 18.576 16.16 18.576 16.496C18.588 16.832 18.416 17 18.06 17Z" fill="white"/>
<path d="M9.96799 14.372V14.66C9.96799 15.176 10.062 15.528 10.25 15.716C10.438 15.9 10.792 15.992 11.312 15.992H12.296C12.704 15.992 13.006 15.954 13.202 15.878C13.398 15.802 13.528 15.668 13.592 15.476C13.636 15.324 13.696 15.208 13.772 15.128C13.852 15.048 13.972 15.008 14.132 15.008C14.3 15.008 14.428 15.052 14.516 15.14C14.604 15.228 14.632 15.356 14.6 15.524C14.512 16.02 14.276 16.39 13.892 16.634C13.508 16.878 12.976 17 12.296 17H11.312C10.516 17 9.92399 16.808 9.53599 16.424C9.15199 16.04 8.95999 15.452 8.95999 14.66V13.268C8.95999 12.456 9.15199 11.86 9.53599 11.48C9.92399 11.096 10.516 10.908 11.312 10.916H12.296C13.096 10.916 13.688 11.108 14.072 11.492C14.456 11.872 14.648 12.464 14.648 13.268V13.868C14.648 14.204 14.48 14.372 14.144 14.372H9.96799ZM11.312 11.924C10.792 11.916 10.438 12.006 10.25 12.194C10.062 12.382 9.96799 12.74 9.96799 13.268V13.364H13.64V13.268C13.64 12.744 13.546 12.39 13.358 12.206C13.174 12.018 12.82 11.924 12.296 11.924H11.312Z" fill="white"/>
</svg>
